<svg xmlns="http://www.w3.org/2000/svg">
    <symbol id="location">
        <svg width="16" height="16" viewBox="0 0 16 16" fill="none" xmlns="http://www.w3.org/2000/svg">
            <path d="M8.87557e-05 5.98934C-0.0021161 6.12448 0.0368048 6.25708 0.111691 6.36959C0.186577 6.48209 0.293891 6.56918 0.419404 6.6193L6.8198 9.1798L9.38035 15.5807C9.42982 15.7045 9.51527 15.8106 9.62566 15.8854C9.73606 15.9601 9.86634 16 9.99966 16H10.0103C10.1453 15.9979 10.2765 15.9548 10.3865 15.8765C10.4965 15.7981 10.5801 15.6883 10.6263 15.5614L15.9594 0.89569C16.0031 0.776382 16.0117 0.647083 15.9843 0.523022C15.957 0.39896 15.8947 0.285302 15.8049 0.195433C15.7151 0.105564 15.6015 0.0432268 15.4775 0.0157628C15.3534 -0.0117012 15.2241 -0.00314809 15.1048 0.0404146L0.438737 5.37339C0.311786 5.41967 0.201878 5.5034 0.123552 5.61351C0.0452263 5.72362 0.00217346 5.85491 8.87557e-05 5.99001V5.98934Z"
                  fill="currentColor"/>
        </svg>

    </symbol>

    <symbol id="briefcase">
        <svg xmlns="http://www.w3.org/2000/svg" width="16" height="16" fill="none">
            <path fill="currentColor"
                  d="M5.75 1.5h4.5c.14 0 .25.11.25.25V3h-5V1.75c0-.14.11-.25.25-.25ZM4 1.75V3H2a2 2 0 0 0-2 2v3h16V5a2 2 0 0 0-2-2h-2V1.75C12 .78 11.22 0 10.25 0h-4.5C4.78 0 4 .78 4 1.75ZM16 9h-6v1a1 1 0 0 1-1 1H7a1 1 0 0 1-1-1V9H0v4c0 1.1.9 2 2 2h12a2 2 0 0 0 2-2V9Z"/>
        </svg>
    </symbol>

    <symbol id="filter">
        <svg xmlns="http://www.w3.org/2000/svg" width="16" height="16" viewBox="0 0 16 16" fill="none">
            <path d="M0.121712 1.71562C0.327962 1.27813 0.765462 1 1.24984 1H14.7498C15.2342 1 15.6717 1.27813 15.878 1.71562C16.0842 2.15312 16.0217 2.66875 15.7155 3.04375L9.99984 10.0281V14C9.99984 14.3781 9.78734 14.725 9.44671 14.8937C9.10609 15.0625 8.70296 15.0281 8.39984 14.8L6.39984 13.3C6.14671 13.1125 5.99984 12.8156 5.99984 12.5V10.0281L0.281087 3.04062C-0.0220383 2.66875 -0.0876633 2.15 0.121712 1.71562Z"
                  fill="currentColor"/>
        </svg>
    </symbol>

    <symbol id="hide">
        <svg xmlns="http://www.w3.org/2000/svg" width="16" height="16" viewBox="0 0 16 16" fill="none">
            <path d="M1.00098 3.3999L15.001 12.3999" stroke="currentColor" stroke-width="2" stroke-linecap="round"/>
            <path fill-rule="evenodd" clip-rule="evenodd"
                  d="M2.88385 4.02844C4.16948 2.90662 5.88656 2 8.00028 2C10.2447 2 12.0419 3.02222 13.3503 4.23889C14.6503 5.44444 15.5197 6.88889 15.9336 7.88056C16.0253 8.1 16.0253 8.34444 15.9336 8.56389C15.6225 9.30922 15.0541 10.3087 14.239 11.2723L11.7287 9.67094C11.9065 9.21336 12.0003 8.72263 12.0003 8.22222C12.0003 7.16136 11.5789 6.14394 10.8287 5.3938C10.0786 4.64365 9.06115 4.22222 8.00028 4.22222C6.93942 4.22222 5.922 4.64365 5.17185 5.3938C5.15269 5.41296 5.13375 5.43229 5.11502 5.4518L2.88385 4.02844ZM0.667107 6.70514C0.412848 7.13254 0.213327 7.53417 0.0697266 7.88056C-0.0219401 8.1 -0.0219401 8.34444 0.0697266 8.56389C0.480838 9.55556 1.35028 11 2.65028 12.2056C3.95862 13.4222 5.75584 14.4444 8.00028 14.4444C9.29937 14.4444 10.4486 14.102 11.44 13.5776L9.08184 12.0732C8.73285 12.1713 8.36919 12.2222 8.00028 12.2222C6.93942 12.2222 5.922 11.8008 5.17185 11.0506C4.57485 10.4536 4.18605 9.68736 4.05219 8.86462L0.667107 6.70514ZM6.48871 10.419C6.53796 10.4528 6.58831 10.4849 6.63967 10.5153L6.48871 10.419ZM10.5697 8.93154C10.6928 8.48806 10.7028 8.00697 10.5753 7.53056C10.2669 6.37778 9.2475 5.60278 8.11417 5.55556C7.95306 5.55 7.85862 5.725 7.90862 5.88056C7.96695 6.05833 8.00028 6.24722 8.00028 6.44444C8.00028 6.70991 7.94185 6.96195 7.83716 7.18836L10.5697 8.93154Z"
                  fill="currentColor"/>
        </svg>
    </symbol>
</svg>